<svg width="139" height="42" viewBox="0 0 139 42" fill="none" xmlns="http://www.w3.org/2000/svg">
<path fill-rule="evenodd" clip-rule="evenodd" d="M106.152 20.9287H102.43L101.868 22.6845H98.1808L102.307 11.5173H106.363L110.401 22.7197H106.697L106.152 20.9287ZM104.396 9.55074L101.763 10.7798V8.49723L104.379 7.3208L106.978 8.51478V10.7798L104.396 9.55074ZM105.362 18.33L104.361 15.2046L103.343 18.3125L105.362 18.33ZM53.7578 21.8411C52.8949 21.3492 52.1748 20.6412 51.6684 19.7867C51.1485 18.8859 50.8873 17.8591 50.9133 16.8193C50.902 15.7846 51.1688 14.7658 51.6859 13.8695C52.1815 13.0049 52.9121 12.2987 53.7929 11.8327C54.6804 11.3439 55.677 11.0876 56.6901 11.0876C57.7032 11.0876 58.6999 11.3439 59.5873 11.8327C60.4274 12.3304 61.1234 13.0385 61.6065 13.8871C62.1076 14.7927 62.3705 15.8107 62.3705 16.8457C62.3705 17.8807 62.1076 18.8987 61.6065 19.8043C61.1033 20.6673 60.375 21.3774 59.4995 21.8587C58.6207 22.3522 57.6277 22.6065 56.6199 22.5961C55.618 22.5857 54.6344 22.3262 53.7578 21.8411ZM58.2704 18.6454C58.6694 18.1494 58.8752 17.5257 58.8498 16.8896C58.871 16.257 58.6725 15.6365 58.2879 15.1337C58.0867 14.9076 57.8367 14.7301 57.5569 14.6145C57.2771 14.4989 56.9747 14.4483 56.6725 14.4665C56.3699 14.4443 56.0663 14.4931 55.7859 14.6089C55.5054 14.7247 55.2559 14.9044 55.0571 15.1337C54.6855 15.6669 54.4863 16.3011 54.4863 16.951C54.4863 17.6009 54.6855 18.2352 55.0571 18.7683C55.26 18.9925 55.5102 19.1686 55.7896 19.284C56.0691 19.3994 56.3706 19.4512 56.6725 19.4356C56.9825 19.4404 57.2892 19.3713 57.5671 19.2339C57.845 19.0965 58.0861 18.8947 58.2704 18.6454ZM39.6932 13.8704C40.1192 13.0241 40.7848 12.3219 41.607 11.8511C42.4632 11.4178 43.4044 11.1789 44.3636 11.1516C45.3228 11.1243 46.2761 11.3092 47.1555 11.6931C47.8937 12.047 48.5331 12.5778 49.0168 13.2383C49.5045 13.9354 49.8286 14.7337 49.9649 15.5736H46.2601C46.1105 15.2219 45.86 14.9224 45.5402 14.7132C45.2319 14.4977 44.8626 14.3869 44.4866 14.3971C44.217 14.393 43.95 14.451 43.7064 14.5668C43.4628 14.6825 43.2491 14.8527 43.082 15.0644C42.7125 15.573 42.5268 16.1921 42.5552 16.8202C42.531 17.4451 42.7096 18.0611 43.0644 18.5761C43.2316 18.7877 43.4453 18.958 43.6889 19.0737C43.9325 19.1894 44.1994 19.2474 44.4691 19.2433C44.8482 19.2552 45.2219 19.1511 45.5402 18.9448C45.8512 18.7258 46.0994 18.4292 46.2601 18.0844H49.9474C49.8092 18.9214 49.4786 19.7148 48.9816 20.4022C48.5054 21.0653 47.8637 21.592 47.1204 21.9297C46.3064 22.3051 45.418 22.4912 44.5218 22.4741C43.4954 22.4999 42.4815 22.2449 41.5895 21.7366C40.7564 21.2717 40.0879 20.5601 39.6756 19.6998C39.231 18.78 39 17.7716 39 16.75C39 15.7283 39.231 14.7199 39.6756 13.8001L39.6932 13.8704ZM70.8773 22.5265H74.389L74.4066 11.3241H70.8949V17.0482L67.19 11.3241H63.6783V22.5089H67.19V16.8902L70.8773 22.5265ZM87.4701 11.3763V14.1506H84.4325V22.5611H80.9208V14.1681H77.9709V11.3588L87.4701 11.3763ZM91.93 18.5591L94.0195 22.58L97.9702 22.5976L95.5471 18.3133C96.2485 18.0919 96.8626 17.6558 97.3029 17.0666C97.7222 16.4908 97.9439 15.7948 97.935 15.0825C97.951 14.4225 97.7806 13.7713 97.4434 13.2037C97.1125 12.6254 96.6091 12.165 96.0036 11.8869C95.2798 11.5449 94.4862 11.3765 93.6859 11.3952H88.4183V22.58H91.93V18.5591ZM93.2996 16.1887H91.9124V14.2924H93.3171C93.5874 14.2839 93.8508 14.378 94.0546 14.5557C94.144 14.6487 94.2134 14.759 94.2587 14.8798C94.304 15.0005 94.3242 15.1293 94.318 15.2581C94.3269 15.3884 94.3097 15.5192 94.2675 15.6428C94.2253 15.7664 94.1589 15.8803 94.0722 15.978C93.85 16.1422 93.5744 16.2174 93.2996 16.1887ZM114.651 17.7683V11.4647L111.192 11.4472V17.7507C111.167 18.7005 111.378 19.6417 111.806 20.4898C112.196 21.2429 112.809 21.8565 113.562 22.2457C114.349 22.6286 115.215 22.821 116.091 22.8076C116.979 22.8396 117.861 22.6463 118.654 22.2457C119.406 21.8546 120.019 21.2415 120.41 20.4898C120.88 19.6613 121.117 18.7207 121.095 17.7683V11.4647H117.583V17.7683C117.61 18.2087 117.479 18.6443 117.214 18.9974C117.074 19.1525 116.899 19.273 116.704 19.3491C116.509 19.4253 116.299 19.4552 116.091 19.4363C115.883 19.4575 115.673 19.4269 115.48 19.3472C115.287 19.2676 115.117 19.1413 114.984 18.9798C114.743 18.6239 114.625 18.1979 114.651 17.7683Z" fill="black"/>
<path fill-rule="evenodd" clip-rule="evenodd" d="M61.5699 33.7519L64.0157 27.3189H63.1936L61.1383 32.8682L59.083 27.2983H58.1787L60.5834 33.7519H61.5699ZM65.7835 30.0524V27.9971L68.4143 28.1205V27.2983H64.9409V33.6492H68.4143V32.9504H65.7835V30.7307H68.1471V30.0524H65.7835ZM74.7238 33.7929H73.9017L70.5105 28.6547V33.7723H69.6678V27.3187H70.5105L73.8811 32.457V27.3393H74.7238V33.7929ZM80.1498 28.1207V27.3602L75.7926 27.4219V28.1207H77.5601V33.8755H78.4028V28.1207H80.1498ZM82.02 27.3603V31.4709C81.9868 31.9329 82.1342 32.3897 82.4311 32.7452C82.754 33.0281 83.1737 33.1754 83.6026 33.1562C83.8156 33.1714 84.0295 33.1428 84.231 33.0721C84.4325 33.0014 84.6173 32.8901 84.7741 32.7452C84.9231 32.5703 85.036 32.3677 85.1066 32.149C85.1771 31.9303 85.2038 31.6999 85.1852 31.4709V27.3603H86.0279V31.4709C86.0466 31.9449 85.9327 32.4147 85.699 32.8274C85.5088 33.1834 85.2049 33.4656 84.8358 33.629C84.4514 33.8137 84.029 33.9052 83.6026 33.8961C83.1758 33.9101 82.7522 33.8183 82.3695 33.629C81.9992 33.4496 81.6913 33.1632 81.4857 32.8068C81.2685 32.3885 81.1624 31.9215 81.1774 31.4504V27.3398L82.02 27.3603ZM89.3572 31.2035L90.8164 33.8343H91.8646L90.2409 31.1418C90.6894 31.0502 91.0945 30.8115 91.3919 30.4636C91.6571 30.1319 91.7955 29.7166 91.7824 29.2921C91.7891 28.9537 91.7039 28.6199 91.5358 28.3261C91.3627 28.0309 91.1049 27.7946 90.7959 27.6479C90.4131 27.4585 89.9895 27.3667 89.5627 27.3807H87.5074V33.8343H88.3501V31.2035H89.3572ZM89.501 30.5253H88.2679V28.0795H89.501C89.6858 28.0598 89.8726 28.0789 90.0495 28.1355C90.2265 28.1922 90.3897 28.2851 90.5287 28.4083C90.6476 28.5214 90.7404 28.6591 90.8007 28.8117C90.8611 28.9643 90.8875 29.1282 90.8781 29.2921C90.884 29.4586 90.856 29.6246 90.796 29.78C90.7359 29.9355 90.645 30.0771 90.5287 30.1964C90.3877 30.3166 90.2243 30.4076 90.0479 30.464C89.8714 30.5205 89.6856 30.5413 89.501 30.5253ZM93.8995 28.1205V30.1758H96.2631V30.8746H93.8789V33.0943H96.5097V33.7931H93.0363V27.3806H96.5097V28.1205H93.8995ZM97.8872 33.0739C98.0927 33.3492 98.37 33.5625 98.6888 33.6905C99.0169 33.8733 99.3825 33.9788 99.7575 33.9988C100.165 34.0131 100.568 33.921 100.929 33.7316C101.228 33.5702 101.482 33.3371 101.669 33.0534C101.831 32.7873 101.917 32.4813 101.916 32.1696C101.931 31.8245 101.829 31.4843 101.628 31.2036C101.462 30.9728 101.234 30.7944 100.97 30.6898C100.639 30.5363 100.295 30.4125 99.9425 30.3198C99.6712 30.2517 99.4036 30.1694 99.1409 30.0732C98.9505 29.9987 98.7812 29.8788 98.6477 29.7238C98.5755 29.6473 98.52 29.5567 98.4846 29.4576C98.4492 29.3586 98.4347 29.2532 98.4421 29.1483C98.4365 29.003 98.4652 28.8584 98.5259 28.7263C98.5866 28.5942 98.6776 28.4782 98.7915 28.3879C99.0288 28.1959 99.3297 28.1005 99.6342 28.1207C99.8059 28.1076 99.9785 28.1301 100.141 28.1867C100.304 28.2432 100.453 28.3327 100.58 28.4495C100.685 28.5227 100.775 28.6172 100.842 28.7269C100.909 28.8366 100.953 28.9591 100.97 29.0867H101.895C101.88 28.8512 101.815 28.6216 101.705 28.4127C101.595 28.2038 101.443 28.0203 101.258 27.874C100.832 27.5571 100.309 27.3973 99.7781 27.4219C99.3911 27.4108 99.006 27.4808 98.6477 27.6274C98.3455 27.7652 98.0888 27.9862 97.9078 28.2646C97.7176 28.5352 97.6169 28.8586 97.62 29.1894C97.6091 29.5311 97.7022 29.868 97.8872 30.1554C98.0558 30.3832 98.2831 30.5608 98.5449 30.6692C98.8784 30.8109 99.2219 30.9277 99.5726 31.0186C99.8531 31.0861 100.128 31.1754 100.395 31.2858C100.596 31.3499 100.775 31.4713 100.908 31.6352C101.039 31.8057 101.104 32.0169 101.093 32.2313C101.099 32.3775 101.072 32.5231 101.015 32.658C100.958 32.7929 100.873 32.9138 100.765 33.0123C100.484 33.2137 100.144 33.315 99.7986 33.3C99.4553 33.3249 99.1159 33.2142 98.8532 32.9917C98.6361 32.7956 98.5035 32.5231 98.4833 32.2313H97.5789C97.5994 32.5358 97.7063 32.8281 97.8872 33.0739Z" fill="black"/>
<path d="M26.1997 25.3602C24.1997 22.1702 18.8497 14.3602 17.7197 13.6602C19.4397 13.6602 21.0997 13.8302 22.1597 11.8902C21.1597 11.6702 19.7397 11.7302 19.5597 11.0002C19.3797 10.2702 20.7597 8.12022 18.9697 6.85022C18.2704 6.40209 17.5459 5.99475 16.7997 5.63021C16.7997 5.63021 12.6297 3.63021 11.8997 0.970215C11.5522 1.56274 11.3947 2.24752 11.4483 2.93232C11.5019 3.61712 11.7642 4.26902 12.1997 4.80021C12.9123 5.59245 13.6918 6.32182 14.5297 6.98021C15.1797 7.54021 16.2797 8.04021 15.8197 8.98021C15.5197 9.59021 13.7097 10.2202 13.7097 10.2202H13.3497C11.3903 10.2647 9.45764 9.75888 7.77129 8.76015C6.08494 7.76142 4.71244 6.30982 3.80967 4.57021C2.99967 6.57021 4.14966 9.23021 6.56966 11.5702C6.32549 11.9101 6.02032 12.2017 5.66967 12.4302C5.74744 12.801 5.91967 13.1455 6.16967 13.4302C5.30967 13.9102 4.50966 14.3402 3.71966 14.8002C2.92966 15.2602 2.15966 15.8002 1.39966 16.2602C1.14966 16.4302 0.809666 16.6402 0.739666 16.8902C0.259666 18.4802 2.12967 20.5102 3.73967 20.4902C4.98967 20.4902 8.65967 20.8302 9.30967 20.9202L12.6297 18.6002L10.0397 21.1202C10.5844 21.3148 11.076 21.6341 11.4754 22.0525C11.8747 22.471 12.1707 22.977 12.3397 23.5302C10.5897 22.1902 10.4297 22.0202 9.24966 21.7102C8.90612 22.5573 8.44492 23.3518 7.87966 24.0702C6.83396 24.9679 5.71319 25.7741 4.52967 26.4802C4.38967 26.9502 4.89966 28.7502 5.43966 30.6802C6.43966 31.2102 7.32967 31.6802 8.27967 32.1702C9.44652 32.7158 10.5118 33.4565 11.4297 34.3602L11.7397 34.6802C12.9506 33.4834 14.3448 32.4875 15.8697 31.7302C17.3497 30.9702 18.3697 30.2902 19.5097 29.6402L20.1597 29.2602C19.3797 25.3402 18.2297 19.7402 16.0397 16.2602C18.7056 19.9091 21.1211 23.7346 23.2697 27.7102L26.1997 25.3602ZM1.48967 17.1602C1.74648 17.2108 1.97919 17.3453 2.15116 17.5427C2.32314 17.74 2.42463 17.9889 2.43966 18.2502C2.1815 17.8398 1.861 17.472 1.48967 17.1602ZM8.79966 14.6902C8.44839 14.7259 8.12006 14.8813 7.86966 15.1302C7.89048 14.9458 7.95601 14.7692 8.06057 14.6158C8.16514 14.4625 8.30557 14.337 8.46966 14.2502C8.67703 14.1412 8.89947 14.0637 9.12967 14.0202C9.54023 13.9558 9.91715 13.755 10.1997 13.4502C10.085 13.7553 9.89753 14.0278 9.65353 14.2439C9.40953 14.4601 9.1164 14.6133 8.79966 14.6902ZM13.9597 10.9602C14.1722 11.4423 14.4886 11.8715 14.8862 12.2172C15.2838 12.5629 15.7527 12.8166 16.2597 12.9602C15.7029 12.9486 15.1678 12.7421 14.7475 12.3767C14.3273 12.0113 14.0485 11.51 13.9597 10.9602Z" fill="black"/>
</svg>
