<svg width="116" height="35" viewBox="0 0 116 35" fill="none" xmlns="http://www.w3.org/2000/svg">
<g opacity="0.4">
<path fill-rule="evenodd" clip-rule="evenodd" d="M88.199 17.5263H85.1121L84.6462 18.9824H81.5884L85.0102 9.72172H88.3738L91.7227 19.0115H88.6504L88.199 17.5263ZM86.7429 8.09092L84.5588 9.11017V7.21728L86.7284 6.2417L88.8834 7.23183V9.11017L86.7429 8.09092ZM87.5438 15.3713L86.7138 12.7795L85.8693 15.3567L87.5438 15.3713ZM44.7499 18.2829C44.0343 17.875 43.4372 17.2879 43.0172 16.5793C42.5861 15.8323 42.3695 14.9808 42.3911 14.1185C42.3817 13.2605 42.6029 12.4156 43.0317 11.6723C43.4427 10.9554 44.0486 10.3697 44.779 9.98328C45.5149 9.57795 46.3414 9.3654 47.1816 9.3654C48.0217 9.3654 48.8482 9.57795 49.5841 9.98328C50.2808 10.396 50.8579 10.9832 51.2586 11.6869C51.6741 12.4379 51.8922 13.2821 51.8922 14.1404C51.8922 14.9987 51.6741 15.8429 51.2586 16.5939C50.8412 17.3096 50.2373 17.8984 49.5113 18.2975C48.7825 18.7068 47.9591 18.9176 47.1233 18.909C46.2925 18.9004 45.4769 18.6852 44.7499 18.2829ZM48.492 15.6329C48.8229 15.2215 48.9936 14.7043 48.9725 14.1768C48.9901 13.6522 48.8255 13.1377 48.5066 12.7207C48.3397 12.5332 48.1324 12.386 47.9004 12.2901C47.6683 12.1943 47.4176 12.1523 47.167 12.1674C46.9161 12.149 46.6643 12.1894 46.4317 12.2855C46.1991 12.3815 45.9922 12.5306 45.8274 12.7207C45.5192 13.1628 45.354 13.6888 45.354 14.2277C45.354 14.7667 45.5192 15.2927 45.8274 15.7348C45.9956 15.9206 46.2031 16.0667 46.4348 16.1624C46.6665 16.2581 46.9166 16.3011 47.167 16.2881C47.4241 16.2921 47.6784 16.2348 47.9088 16.1208C48.1393 16.0069 48.3392 15.8396 48.492 15.6329ZM33.0865 11.6731C33.4398 10.9713 33.9918 10.3889 34.6737 9.99856C35.3836 9.63919 36.1642 9.4411 36.9596 9.41844C37.755 9.39579 38.5456 9.54914 39.2748 9.86752C39.887 10.161 40.4172 10.6011 40.8183 11.1489C41.2228 11.727 41.4915 12.389 41.6046 13.0854H38.5323C38.4082 12.7938 38.2005 12.5455 37.9353 12.372C37.6796 12.1933 37.3734 12.1014 37.0616 12.1099C36.838 12.1065 36.6166 12.1546 36.4146 12.2505C36.2126 12.3465 36.0354 12.4877 35.8968 12.6632C35.5904 13.085 35.4363 13.5984 35.4599 14.1193C35.4399 14.6375 35.588 15.1483 35.8822 15.5753C36.0208 15.7508 36.198 15.892 36.4 15.988C36.602 16.0839 36.8234 16.1321 37.0471 16.1286C37.3614 16.1386 37.6713 16.0522 37.9353 15.8811C38.1932 15.6995 38.399 15.4535 38.5323 15.1676H41.59C41.4755 15.8617 41.2013 16.5196 40.7892 17.0897C40.3942 17.6396 39.8621 18.0763 39.2457 18.3564C38.5707 18.6677 37.8339 18.822 37.0907 18.8078C36.2396 18.8292 35.3988 18.6178 34.6591 18.1963C33.9683 17.8107 33.4138 17.2207 33.072 16.5072C32.7032 15.7445 32.5117 14.9082 32.5117 14.061C32.5117 13.2138 32.7032 12.3776 33.072 11.6148L33.0865 11.6731ZM58.9465 18.8513H61.8587L61.8733 9.56154H58.9611V14.3083L55.8888 9.56154H52.9766V18.8367H55.8888V14.1773L58.9465 18.8513ZM72.7064 9.60482V11.9054H70.1874V18.88H67.2753V11.92H64.8291V9.59025L72.7064 9.60482ZM76.4049 15.5613L78.1376 18.8957L81.4138 18.9102L79.4044 15.3574C79.9861 15.1738 80.4954 14.8122 80.8605 14.3236C81.2082 13.8461 81.3921 13.2689 81.3847 12.6782C81.3979 12.1309 81.2566 11.5909 80.977 11.1202C80.7026 10.6406 80.2851 10.2588 79.783 10.0282C79.1828 9.7446 78.5247 9.60499 77.861 9.62047H73.4928V18.8957H76.4049V15.5613ZM77.5406 13.5956H76.3903V12.023H77.5552C77.7793 12.016 77.9978 12.094 78.1667 12.2414C78.2409 12.3185 78.2985 12.41 78.336 12.5101C78.3736 12.6103 78.3903 12.717 78.3852 12.8238C78.3925 12.9319 78.3783 13.0403 78.3433 13.1428C78.3083 13.2453 78.2532 13.3398 78.1813 13.4208C77.9971 13.557 77.7685 13.6194 77.5406 13.5956ZM95.2466 14.9055V9.67814L92.3781 9.66359V14.8909C92.3574 15.6786 92.5325 16.459 92.8877 17.1624C93.2105 17.7869 93.7193 18.2957 94.3438 18.6184C94.9965 18.936 95.7148 19.0956 96.4405 19.0844C97.1771 19.1109 97.9085 18.9506 98.5664 18.6184C99.1898 18.2941 99.6982 17.7857 100.022 17.1624C100.412 16.4753 100.609 15.6953 100.59 14.9055V9.67814H97.6782V14.9055C97.7003 15.2707 97.5919 15.6319 97.3724 15.9247C97.2559 16.0534 97.111 16.1533 96.9493 16.2164C96.7876 16.2796 96.6134 16.3043 96.4405 16.2887C96.2683 16.3063 96.0943 16.2809 95.9342 16.2148C95.7742 16.1488 95.6329 16.0441 95.5232 15.9101C95.3226 15.615 95.2253 15.2617 95.2466 14.9055Z" fill="black"/>
<path fill-rule="evenodd" clip-rule="evenodd" d="M51.2282 28.1604L53.2565 22.8256H52.5747L50.8703 27.4275L49.1659 22.8086H48.416L50.4101 28.1604H51.2282ZM54.7225 25.0925V23.3881L56.9041 23.4903V22.8086H54.0237V28.0751H56.9041V27.4956H54.7225V25.6549H56.6825V25.0925H54.7225ZM62.1363 28.1943H61.4546L58.6424 23.9334V28.1773H57.9436V22.8255H58.6424L61.4375 27.0865V22.8426H62.1363V28.1943ZM66.6359 23.4905V22.8599L63.0226 22.911V23.4905H64.4884V28.2628H65.1872V23.4905H66.6359ZM68.1869 22.86V26.2688C68.1593 26.6519 68.2816 27.0307 68.5278 27.3255C68.7955 27.5601 69.1436 27.6823 69.4992 27.6664C69.6759 27.679 69.8532 27.6552 70.0203 27.5966C70.1874 27.538 70.3407 27.4457 70.4708 27.3255C70.5943 27.1804 70.6879 27.0124 70.7464 26.8311C70.8049 26.6498 70.8271 26.4587 70.8116 26.2688V22.86H71.5104V26.2688C71.526 26.6618 71.4315 27.0514 71.2377 27.3937C71.08 27.6889 70.828 27.9229 70.5219 28.0584C70.2032 28.2116 69.8528 28.2875 69.4992 28.2799C69.1453 28.2915 68.794 28.2154 68.4766 28.0584C68.1696 27.9096 67.9143 27.6721 67.7437 27.3766C67.5637 27.0297 67.4756 26.6424 67.4881 26.2517V22.843L68.1869 22.86ZM74.2713 26.047L75.4814 28.2286H76.3507L75.0042 25.9959C75.3761 25.9199 75.712 25.722 75.9587 25.4334C76.1786 25.1583 76.2933 24.814 76.2825 24.4619C76.288 24.1813 76.2174 23.9045 76.078 23.6609C75.9345 23.4161 75.7207 23.2201 75.4644 23.0984C75.147 22.9414 74.7957 22.8653 74.4418 22.8769H72.7374V28.2286H73.4362V26.047H74.2713ZM74.3906 25.4846H73.368V23.4564H74.3906C74.5438 23.4401 74.6987 23.4559 74.8455 23.5029C74.9922 23.5498 75.1275 23.6268 75.2428 23.7291C75.3414 23.8229 75.4184 23.937 75.4684 24.0636C75.5185 24.1901 75.5404 24.3261 75.5326 24.4619C75.5374 24.6 75.5143 24.7377 75.4645 24.8666C75.4147 24.9955 75.3393 25.1129 75.2428 25.2119C75.1259 25.3115 74.9904 25.387 74.8441 25.4338C74.6978 25.4806 74.5437 25.4979 74.3906 25.4846ZM78.0381 23.4904V25.1948H79.9982V25.7743H78.0211V27.615H80.2027V28.1945H77.3223V22.8768H80.2027V23.4904H78.0381ZM81.345 27.5981C81.5154 27.8263 81.7454 28.0032 82.0097 28.1094C82.2818 28.261 82.585 28.3484 82.896 28.3651C83.2336 28.3769 83.5685 28.3006 83.8675 28.1435C84.1154 28.0096 84.3262 27.8164 84.4811 27.5811C84.6157 27.3604 84.6865 27.1067 84.6856 26.8482C84.6981 26.562 84.6141 26.2798 84.447 26.0471C84.3099 25.8557 84.1205 25.7078 83.9016 25.621C83.6272 25.4937 83.342 25.3911 83.0494 25.3142C82.8244 25.2577 82.6025 25.1895 82.3847 25.1097C82.2267 25.0479 82.0863 24.9484 81.9757 24.82C81.9158 24.7565 81.8697 24.6814 81.8404 24.5992C81.8111 24.5171 81.7991 24.4297 81.8052 24.3427C81.8005 24.2222 81.8243 24.1023 81.8747 23.9928C81.925 23.8832 82.0005 23.787 82.0949 23.7121C82.2917 23.5529 82.5412 23.4738 82.7938 23.4905C82.9362 23.4797 83.0793 23.4983 83.2142 23.5452C83.349 23.5922 83.4728 23.6664 83.5778 23.7632C83.6655 23.8239 83.7397 23.9023 83.7954 23.9932C83.8512 24.0842 83.8873 24.1858 83.9016 24.2916H84.6686C84.6558 24.0963 84.6022 23.9059 84.5112 23.7327C84.4201 23.5595 84.2938 23.4073 84.1402 23.286C83.7867 23.0232 83.3531 22.8907 82.9131 22.9111C82.5921 22.9018 82.2728 22.9599 81.9757 23.0815C81.7251 23.1957 81.5122 23.379 81.3621 23.6098C81.2043 23.8343 81.1209 24.1025 81.1235 24.3768C81.1144 24.6601 81.1916 24.9395 81.345 25.1779C81.4848 25.3667 81.6733 25.514 81.8904 25.604C82.167 25.7215 82.4518 25.8183 82.7426 25.8937C82.9753 25.9497 83.2032 26.0237 83.4244 26.1153C83.5915 26.1685 83.7396 26.2691 83.8505 26.405C83.9586 26.5464 84.013 26.7216 84.0039 26.8993C84.0082 27.0206 83.9861 27.1414 83.939 27.2532C83.8919 27.3651 83.8209 27.4653 83.7312 27.547C83.4984 27.714 83.2163 27.798 82.9301 27.7856C82.6454 27.8062 82.3639 27.7145 82.1461 27.5299C81.9661 27.3673 81.8561 27.1413 81.8393 26.8993H81.0894C81.1063 27.1518 81.195 27.3943 81.345 27.5981Z" fill="black"/>
<path d="M21.8974 21.201C20.2388 18.5556 15.8023 12.079 14.8652 11.4985C16.2915 11.4985 17.6681 11.6395 18.5471 10.0307C17.7179 9.84827 16.5403 9.89802 16.391 9.29266C16.2418 8.68729 17.3862 6.90437 15.9018 5.8512C15.3219 5.47958 14.7211 5.14178 14.1022 4.83949C14.1022 4.83949 10.6442 3.18095 10.0388 0.975098C9.75068 1.46646 9.62005 2.03433 9.66453 2.60221C9.70901 3.17009 9.92648 3.71069 10.2876 4.15119C10.8786 4.80817 11.525 5.41301 12.2198 5.959C12.7588 6.42339 13.671 6.83802 13.2896 7.61754C13.0408 8.12339 11.5398 8.64583 11.5398 8.64583H11.2413C9.61641 8.68274 8.01375 8.26326 6.61531 7.43505C5.21687 6.60683 4.0787 5.40307 3.33006 3.96046C2.65835 5.619 3.61201 7.82485 5.61884 9.76534C5.41636 10.0472 5.16329 10.289 4.8725 10.4785C4.937 10.786 5.07982 11.0717 5.28713 11.3078C4.57396 11.7058 3.91055 12.0624 3.25542 12.4439C2.6003 12.8253 1.96177 13.2731 1.33152 13.6546C1.1242 13.7956 0.842257 13.9697 0.784208 14.177C0.386159 15.4956 1.93689 17.179 3.27201 17.1624C4.3086 17.1624 7.35201 17.4444 7.89104 17.519L10.6442 15.5951L8.4964 17.6849C8.94811 17.8462 9.35583 18.111 9.68699 18.458C10.0182 18.805 10.2636 19.2246 10.4037 19.6834C8.9525 18.5722 8.81981 18.4312 7.84128 18.1741C7.55639 18.8766 7.17393 19.5354 6.70518 20.1312C5.83801 20.8756 4.90859 21.5442 3.92714 22.1297C3.81104 22.5195 4.23396 24.0122 4.68177 25.6127C5.51103 26.0522 6.24909 26.4419 7.03689 26.8483C8.00453 27.3007 8.88792 27.9149 9.64908 28.6644L9.90616 28.9297C10.9104 27.9373 12.0665 27.1114 13.331 26.4834C14.5584 25.8531 15.4042 25.2892 16.3496 24.7502L16.8886 24.4351C16.2418 21.1844 15.2881 16.5405 13.472 13.6546C15.6828 16.6805 17.6859 19.8529 19.4676 23.1497L21.8974 21.201ZM1.40616 14.4009C1.61913 14.4429 1.8121 14.5545 1.95472 14.7181C2.09734 14.8817 2.1815 15.0881 2.19396 15.3049C1.97988 14.9645 1.71409 14.6595 1.40616 14.4009ZM7.46811 12.3527C7.17681 12.3823 6.90453 12.5111 6.69689 12.7175C6.71415 12.5646 6.76849 12.4182 6.8552 12.291C6.94192 12.1638 7.05837 12.0597 7.19445 11.9878C7.36641 11.8974 7.55087 11.8331 7.74177 11.797C8.08224 11.7436 8.3948 11.5771 8.62909 11.3244C8.53401 11.5774 8.37854 11.8034 8.17619 11.9826C7.97385 12.1618 7.73077 12.2888 7.46811 12.3527ZM11.7471 9.25949C11.9234 9.65925 12.1858 10.0152 12.5155 10.3019C12.8452 10.5886 13.2341 10.799 13.6544 10.918C13.1927 10.9084 12.749 10.7372 12.4005 10.4341C12.052 10.1311 11.8208 9.71541 11.7471 9.25949Z" fill="black"/>
</g>
</svg>
