<svg width="139" height="42" viewBox="0 0 139 42" fill="none" xmlns="http://www.w3.org/2000/svg">
<path fill-rule="evenodd" clip-rule="evenodd" d="M106.152 20.9282H102.43L101.868 22.684H98.1808L102.307 11.5168H106.363L110.401 22.7192H106.697L106.152 20.9282ZM104.396 9.55026L101.763 10.7793V8.49675L104.379 7.32031L106.978 8.51429V10.7793L104.396 9.55026ZM105.362 18.3295L104.361 15.2041L103.343 18.312L105.362 18.3295ZM53.7578 21.8406C52.8949 21.3487 52.1748 20.6407 51.6684 19.7863C51.1485 18.8854 50.8873 17.8586 50.9133 16.8189C50.902 15.7841 51.1688 14.7654 51.6859 13.869C52.1815 13.0045 52.9121 12.2982 53.7929 11.8322C54.6804 11.3434 55.677 11.0871 56.6901 11.0871C57.7032 11.0871 58.6999 11.3434 59.5873 11.8322C60.4274 12.3299 61.1234 13.038 61.6065 13.8866C62.1076 14.7922 62.3705 15.8102 62.3705 16.8452C62.3705 17.8802 62.1076 18.8982 61.6065 19.8038C61.1033 20.6668 60.375 21.3769 59.4995 21.8582C58.6207 22.3517 57.6277 22.606 56.6199 22.5956C55.618 22.5852 54.6344 22.3258 53.7578 21.8406ZM58.2704 18.6449C58.6694 18.1489 58.8752 17.5252 58.8498 16.8891C58.871 16.2565 58.6725 15.636 58.2879 15.1332C58.0867 14.9071 57.8367 14.7296 57.5569 14.614C57.2771 14.4984 56.9747 14.4478 56.6725 14.466C56.3699 14.4438 56.0663 14.4926 55.7859 14.6084C55.5054 14.7242 55.2559 14.904 55.0571 15.1332C54.6855 15.6664 54.4863 16.3007 54.4863 16.9505C54.4863 17.6004 54.6855 18.2347 55.0571 18.7679C55.26 18.992 55.5102 19.1681 55.7896 19.2835C56.0691 19.3989 56.3706 19.4507 56.6725 19.4351C56.9825 19.4399 57.2892 19.3708 57.5671 19.2334C57.845 19.096 58.0861 18.8942 58.2704 18.6449ZM39.6932 13.8699C40.1192 13.0236 40.7848 12.3214 41.607 11.8506C42.4632 11.4173 43.4044 11.1784 44.3636 11.1511C45.3228 11.1238 46.2761 11.3087 47.1555 11.6926C47.8937 12.0465 48.5331 12.5773 49.0168 13.2378C49.5045 13.9349 49.8286 14.7332 49.9649 15.5731H46.2601C46.1105 15.2214 45.86 14.922 45.5402 14.7127C45.2319 14.4972 44.8626 14.3865 44.4866 14.3966C44.217 14.3925 43.95 14.4506 43.7064 14.5663C43.4628 14.682 43.2491 14.8522 43.082 15.0639C42.7125 15.5726 42.5268 16.1917 42.5552 16.8197C42.531 17.4446 42.7096 18.0606 43.0644 18.5756C43.2316 18.7872 43.4453 18.9575 43.6889 19.0732C43.9325 19.1889 44.1994 19.2469 44.4691 19.2428C44.8482 19.2548 45.2219 19.1506 45.5402 18.9443C45.8512 18.7253 46.0994 18.4287 46.2601 18.0839H49.9474C49.8092 18.9209 49.4786 19.7143 48.9816 20.4017C48.5054 21.0648 47.8637 21.5915 47.1204 21.9293C46.3064 22.3046 45.418 22.4907 44.5218 22.4736C43.4954 22.4994 42.4815 22.2444 41.5895 21.7361C40.7564 21.2712 40.0879 20.5596 39.6756 19.6993C39.231 18.7795 39 17.7711 39 16.7495C39 15.7279 39.231 14.7194 39.6756 13.7996L39.6932 13.8699ZM70.8773 22.526H74.389L74.4066 11.3237H70.8949V17.0477L67.19 11.3237H63.6783V22.5084H67.19V16.8897L70.8773 22.526ZM87.4701 11.3758V14.1501H84.4325V22.5606H80.9208V14.1676H77.9709V11.3583L87.4701 11.3758ZM91.93 18.5586L94.0195 22.5795L97.9702 22.5971L95.5471 18.3128C96.2485 18.0914 96.8626 17.6553 97.3029 17.0661C97.7222 16.4903 97.9439 15.7943 97.935 15.082C97.951 14.422 97.7806 13.7708 97.4434 13.2033C97.1125 12.6249 96.6091 12.1645 96.0036 11.8864C95.2798 11.5444 94.4862 11.376 93.6859 11.3947H88.4183V22.5795H91.93V18.5586ZM93.2996 16.1882H91.9124V14.2919H93.3171C93.5874 14.2834 93.8508 14.3775 94.0546 14.5553C94.144 14.6483 94.2134 14.7585 94.2587 14.8793C94.304 15 94.3242 15.1288 94.318 15.2576C94.3269 15.3879 94.3097 15.5187 94.2675 15.6423C94.2253 15.7659 94.1589 15.8798 94.0722 15.9775C93.85 16.1418 93.5744 16.2169 93.2996 16.1882ZM114.651 17.7678V11.4643L111.192 11.4467V17.7502C111.167 18.7001 111.378 19.6412 111.806 20.4894C112.196 21.2424 112.809 21.856 113.562 22.2452C114.349 22.6281 115.215 22.8206 116.091 22.8071C116.979 22.8391 117.861 22.6458 118.654 22.2452C119.406 21.8541 120.019 21.241 120.41 20.4894C120.88 19.6608 121.117 18.7202 121.095 17.7678V11.4643H117.583V17.7678C117.61 18.2082 117.479 18.6438 117.214 18.9969C117.074 19.1521 116.899 19.2725 116.704 19.3487C116.509 19.4248 116.299 19.4547 116.091 19.4358C115.883 19.457 115.673 19.4264 115.48 19.3468C115.287 19.2671 115.117 19.1409 114.984 18.9793C114.743 18.6234 114.625 18.1974 114.651 17.7678Z" fill="white"/>
<path fill-rule="evenodd" clip-rule="evenodd" d="M61.5699 33.7524L64.0157 27.3194H63.1936L61.1383 32.8686L59.083 27.2988H58.1787L60.5834 33.7524H61.5699ZM65.7835 30.0529V27.9976L68.4143 28.1209V27.2988H64.9409V33.6497H68.4143V32.9509H65.7835V30.7311H68.1471V30.0529H65.7835ZM74.7238 33.7934H73.9017L70.5105 28.6552V33.7728H69.6678V27.3192H70.5105L73.8811 32.4574V27.3398H74.7238V33.7934ZM80.1498 28.1212V27.3607L75.7926 27.4224V28.1212H77.5601V33.876H78.4028V28.1212H80.1498ZM82.02 27.3608V31.4714C81.9868 31.9334 82.1342 32.3902 82.4311 32.7457C82.754 33.0286 83.1737 33.1759 83.6026 33.1567C83.8156 33.1719 84.0295 33.1433 84.231 33.0726C84.4325 33.0019 84.6173 32.8906 84.7741 32.7457C84.9231 32.5707 85.036 32.3681 85.1066 32.1495C85.1771 31.9308 85.2038 31.7004 85.1852 31.4714V27.3608H86.0279V31.4714C86.0466 31.9454 85.9327 32.4151 85.699 32.8279C85.5088 33.1839 85.2049 33.4661 84.8358 33.6295C84.4514 33.8142 84.029 33.9057 83.6026 33.8966C83.1758 33.9106 82.7522 33.8188 82.3695 33.6295C81.9992 33.45 81.6913 33.1637 81.4857 32.8073C81.2685 32.389 81.1624 31.922 81.1774 31.4509V27.3403L82.02 27.3608ZM89.3572 31.204L90.8164 33.8348H91.8646L90.2409 31.1423C90.6894 31.0507 91.0945 30.812 91.3919 30.4641C91.6571 30.1324 91.7955 29.7171 91.7824 29.2926C91.7891 28.9542 91.7039 28.6203 91.5358 28.3266C91.3627 28.0314 91.1049 27.7951 90.7959 27.6483C90.4131 27.459 89.9895 27.3672 89.5627 27.3812H87.5074V33.8348H88.3501V31.204H89.3572ZM89.501 30.5257H88.2679V28.08H89.501C89.6858 28.0603 89.8726 28.0794 90.0495 28.136C90.2265 28.1926 90.3897 28.2855 90.5287 28.4088C90.6476 28.5219 90.7404 28.6596 90.8007 28.8122C90.8611 28.9648 90.8875 29.1287 90.8781 29.2926C90.884 29.4591 90.856 29.6251 90.796 29.7805C90.7359 29.9359 90.645 30.0776 90.5287 30.1969C90.3877 30.3171 90.2243 30.408 90.0479 30.4645C89.8714 30.521 89.6856 30.5418 89.501 30.5257ZM93.8995 28.121V30.1763H96.2631V30.8751H93.8789V33.0948H96.5097V33.7936H93.0363V27.3811H96.5097V28.121H93.8995ZM97.8872 33.0744C98.0927 33.3496 98.37 33.563 98.6888 33.691C99.0169 33.8738 99.3825 33.9792 99.7575 33.9993C100.165 34.0136 100.568 33.9215 100.929 33.7321C101.228 33.5706 101.482 33.3376 101.669 33.0539C101.831 32.7877 101.917 32.4818 101.916 32.1701C101.931 31.8249 101.829 31.4848 101.628 31.2041C101.462 30.9733 101.234 30.7949 100.97 30.6903C100.639 30.5368 100.295 30.413 99.9425 30.3203C99.6712 30.2522 99.4036 30.1699 99.1409 30.0737C98.9505 29.9992 98.7812 29.8792 98.6477 29.7243C98.5755 29.6478 98.52 29.5572 98.4846 29.4581C98.4492 29.3591 98.4347 29.2537 98.4421 29.1488C98.4365 29.0035 98.4652 28.8589 98.5259 28.7268C98.5866 28.5947 98.6776 28.4787 98.7915 28.3884C99.0288 28.1964 99.3297 28.101 99.6342 28.1212C99.8059 28.1081 99.9785 28.1306 100.141 28.1871C100.304 28.2437 100.453 28.3332 100.58 28.45C100.685 28.5232 100.775 28.6177 100.842 28.7274C100.909 28.8371 100.953 28.9596 100.97 29.0872H101.895C101.88 28.8517 101.815 28.6221 101.705 28.4132C101.595 28.2043 101.443 28.0208 101.258 27.8745C100.832 27.5576 100.309 27.3978 99.7781 27.4224C99.3911 27.4113 99.006 27.4813 98.6477 27.6279C98.3455 27.7656 98.0888 27.9867 97.9078 28.265C97.7176 28.5357 97.6169 28.8591 97.62 29.1899C97.6091 29.5316 97.7022 29.8684 97.8872 30.1559C98.0558 30.3837 98.2831 30.5613 98.5449 30.6697C98.8784 30.8114 99.2219 30.9282 99.5726 31.0191C99.8531 31.0866 100.128 31.1759 100.395 31.2863C100.596 31.3504 100.775 31.4718 100.908 31.6357C101.039 31.8061 101.104 32.0174 101.093 32.2317C101.099 32.378 101.072 32.5236 101.015 32.6585C100.958 32.7934 100.873 32.9143 100.765 33.0127C100.484 33.2142 100.144 33.3155 99.7986 33.3005C99.4553 33.3254 99.1159 33.2147 98.8532 32.9922C98.6361 32.7961 98.5035 32.5235 98.4833 32.2317H97.5789C97.5994 32.5362 97.7063 32.8286 97.8872 33.0744Z" fill="white"/>
<path d="M26.1997 25.3607C24.1997 22.1707 18.8497 14.3607 17.7197 13.6607C19.4397 13.6607 21.0997 13.8307 22.1597 11.8907C21.1597 11.6707 19.7397 11.7307 19.5597 11.0007C19.3797 10.2707 20.7597 8.1207 18.9697 6.8507C18.2704 6.40258 17.5459 5.99524 16.7997 5.6307C16.7997 5.6307 12.6297 3.6307 11.8997 0.970703C11.5522 1.56323 11.3947 2.24801 11.4483 2.93281C11.5019 3.6176 11.7642 4.26951 12.1997 4.8007C12.9123 5.59294 13.6918 6.32231 14.5297 6.9807C15.1797 7.5407 16.2797 8.0407 15.8197 8.9807C15.5197 9.5907 13.7097 10.2207 13.7097 10.2207H13.3497C11.3903 10.2652 9.45764 9.75937 7.77129 8.76064C6.08494 7.76191 4.71244 6.31031 3.80967 4.5707C2.99967 6.5707 4.14966 9.2307 6.56966 11.5707C6.32549 11.9106 6.02032 12.2022 5.66967 12.4307C5.74744 12.8015 5.91967 13.146 6.16967 13.4307C5.30967 13.9107 4.50966 14.3407 3.71966 14.8007C2.92966 15.2607 2.15966 15.8007 1.39966 16.2607C1.14966 16.4307 0.809666 16.6407 0.739666 16.8907C0.259666 18.4807 2.12967 20.5107 3.73967 20.4907C4.98967 20.4907 8.65967 20.8307 9.30967 20.9207L12.6297 18.6007L10.0397 21.1207C10.5844 21.3153 11.076 21.6346 11.4754 22.053C11.8747 22.4715 12.1707 22.9775 12.3397 23.5307C10.5897 22.1907 10.4297 22.0207 9.24966 21.7107C8.90612 22.5578 8.44492 23.3523 7.87966 24.0707C6.83396 24.9683 5.71319 25.7746 4.52967 26.4807C4.38967 26.9507 4.89966 28.7507 5.43966 30.6807C6.43966 31.2107 7.32967 31.6807 8.27967 32.1707C9.44652 32.7163 10.5118 33.4569 11.4297 34.3607L11.7397 34.6807C12.9506 33.4839 14.3448 32.488 15.8697 31.7307C17.3497 30.9707 18.3697 30.2907 19.5097 29.6407L20.1597 29.2607C19.3797 25.3407 18.2297 19.7407 16.0397 16.2607C18.7056 19.9096 21.1211 23.7351 23.2697 27.7107L26.1997 25.3607ZM1.48967 17.1607C1.74648 17.2113 1.97919 17.3458 2.15116 17.5432C2.32314 17.7405 2.42463 17.9894 2.43966 18.2507C2.1815 17.8403 1.861 17.4725 1.48967 17.1607ZM8.79966 14.6907C8.44839 14.7264 8.12006 14.8818 7.86966 15.1307C7.89048 14.9463 7.95601 14.7697 8.06057 14.6163C8.16514 14.463 8.30557 14.3375 8.46966 14.2507C8.67703 14.1417 8.89947 14.0642 9.12967 14.0207C9.54023 13.9563 9.91715 13.7555 10.1997 13.4507C10.085 13.7558 9.89753 14.0283 9.65353 14.2444C9.40953 14.4605 9.1164 14.6137 8.79966 14.6907ZM13.9597 10.9607C14.1722 11.4428 14.4886 11.872 14.8862 12.2177C15.2838 12.5634 15.7527 12.8171 16.2597 12.9607C15.7029 12.9491 15.1678 12.7426 14.7475 12.3772C14.3273 12.0117 14.0485 11.5105 13.9597 10.9607Z" fill="white"/>
</svg>
